<?xml version="1.0" encoding="UTF-8" standalone="no"?>
<svg
   id="Layer_1"
   data-name="Layer 1"
   viewBox="0 0 880.52 149.84"
   version="1.1"
   sodipodi:docname="peaks2utr_2024.svg"
   width="880.52002"
   height="149.84"
   inkscape:version="1.1.1 (3bf5ae0d25, 2021-09-20)"
   xmlns:inkscape="http://www.inkscape.org/namespaces/inkscape"
   xmlns:sodipodi="http://sodipodi.sourceforge.net/DTD/sodipodi-0.dtd"
   xmlns="http://www.w3.org/2000/svg"
   xmlns:svg="http://www.w3.org/2000/svg">
  <sodipodi:namedview
     id="namedview882"
     pagecolor="#ffffff"
     bordercolor="#666666"
     borderopacity="1.0"
     inkscape:pageshadow="2"
     inkscape:pageopacity="0.0"
     inkscape:pagecheckerboard="0"
     showgrid="false"
     width="900.52px"
     inkscape:zoom="1.4182101"
     inkscape:cx="454.79861"
     inkscape:cy="74.38954"
     inkscape:window-width="2400"
     inkscape:window-height="1261"
     inkscape:window-x="2391"
     inkscape:window-y="-9"
     inkscape:window-maximized="1"
     inkscape:current-layer="Layer_1" />
  <defs
     id="defs873">
    <style
       id="style871">
      .cls-1 {
        fill: #1a2f44;
        fill-rule: evenodd;
      }

      .cls-2 {
        fill: #81cf01;
      }

      .cls-3 {
        fill: #27b2fd;
      }
    </style>
  </defs>
  <path
     class="cls-3"
     d="m 9.78,96.99 c 0,-2.26 1.84,-4.1 4.1,-4.1 2.26,0 4.1,1.83 4.1,4.1 v 42.98 c 15.59,-3.93 27.08,-14.23 37.29,-25.35 1.82,2.03 3.63,4.1 5.45,6.18 -14.06,15.26 -30.54,29.04 -56.6,29.04 -2.26,0 -4.1,-1.83 -4.1,-4.1 0,-2.27 1.83,-4.1 4.1,-4.1 1.95,0 3.84,-0.09 5.68,-0.27 V 96.98 Z m 206.64,44.66 c 2.26,0 4.1,1.83 4.1,4.1 0,2.27 -1.83,4.1 -4.1,4.1 -31.48,0 -48.99,-20.11 -65.13,-38.65 -5.2,-5.97 -10.24,-11.76 -15.53,-16.52 v 26.14 c 0,2.26 -1.83,4.1 -4.1,4.1 -2.27,0 -4.1,-1.83 -4.1,-4.1 v -32.4 c -4.11,-2.55 -8.47,-4.32 -13.21,-4.97 V 131 c 0,2.26 -1.84,4.1 -4.1,4.1 -2.26,0 -4.1,-1.83 -4.1,-4.1 V 83.45 C 92,85.4 81.36,97.24 70.1,110.17 c -1.81,-2.07 -3.63,-4.14 -5.47,-6.19 13.33,-15.28 26.03,-29 45.61,-29 h 0.11 c 20.3,0.05 33.2,14.87 47.1,30.84 7.21,8.28 14.72,16.91 23.67,23.62 v -24.86 c 0,-2.26 1.84,-4.1 4.1,-4.1 2.26,0 4.1,1.83 4.1,4.1 v 30.17 c 7.75,4.24 16.6,6.91 27.09,6.91 z"
     id="path875" />
  <path
     class="cls-2"
     d="m 39.37,95.38 v 24.86 c 0,2.26 -1.83,4.1 -4.1,4.1 -2.27,0 -4.1,-1.83 -4.1,-4.1 V 90.07 c -7.75,-4.24 -16.6,-6.91 -27.09,-6.91 -2.26,0 -4.1,-1.83 -4.1,-4.1 0,-2.27 1.83,-4.1 4.1,-4.1 31.48,0 48.99,20.11 65.12,38.65 5.2,5.97 10.24,11.76 15.54,16.52 v -26.15 c 0,-2.26 1.83,-4.1 4.1,-4.1 2.27,0 4.1,1.83 4.1,4.1 v 32.4 c 5.27,3.26 10.93,5.25 17.31,5.25 16.25,0 27.82,-12.86 40.14,-27 1.81,2.07 3.63,4.14 5.47,6.19 -13.33,15.28 -26.03,29 -45.61,29 -19.58,0 -33.29,-14.84 -47.21,-30.84 -7.21,-8.29 -14.72,-16.91 -23.67,-23.62 v 0 z M 210.74,83.44 v 44.39 c 0,2.26 -1.83,4.1 -4.1,4.1 -2.27,0 -4.1,-1.84 -4.1,-4.1 V 84.85 c -15.59,3.93 -27.08,14.23 -37.29,25.36 -1.82,-2.03 -3.63,-4.1 -5.45,-6.18 14.06,-15.26 30.55,-29.05 56.6,-29.05 2.26,0 4.1,1.84 4.1,4.1 0,2.26 -1.83,4.1 -4.1,4.1 -1.95,0 -3.84,0.09 -5.68,0.27 z"
     id="path877" />
  <path
     class="cls-1"
     d="m 167.66,71.18 10.95,-8.5 -10.94,-8.11 5.1,-7.66 -5.1,-23.11 41.1,47.15 c 1.43,-0.14 2.89,-0.25 4.37,-0.31 L 167.66,18.47 147,42.16 110.26,0 66.83,49.81 46.18,26.12 7.37,70.63 C 27.38,71.45 41.69,79.8 54.6,91.71 L 46.17,79.08 51.46,67.5 46.17,54.19 55.28,56.38 46.17,31.44 86.38,77.57 c 8.11,-5.02 17.29,-7.72 27.57,-6.86 l 3.59,-8.13 -7.29,-9.85 22.6,4.74 -22.6,-25.9 5.1,-9.48 -5.1,-16.78 57.4,65.85 z"
     id="path879" />
  <text
     xml:space="preserve"
     style="font-style:normal;font-variant:normal;font-weight:normal;font-stretch:normal;font-size:153.333px;line-height:1.25;font-family:'Bodoni MT';-inkscape-font-specification:'Bodoni MT';fill:#1a2f44;fill-opacity:1;stroke:none"
     x="231.13779"
     y="107.88245"
     id="text1955"><tspan
       sodipodi:role="line"
       id="tspan1953"
       x="231.13779"
       y="107.88245">peaks2utr</tspan></text>
</svg>
